<?xml version="1.0" encoding="UTF-8" standalone="no"?><svg xmlns="http://www.w3.org/2000/svg" xmlns:xlink="http://www.w3.org/1999/xlink" contentScriptType="application/ecmascript" contentStyleType="text/css" height="391px" preserveAspectRatio="none" style="width:372px;height:391px;" version="1.1" viewBox="0 0 372 391" width="372px" zoomAndPan="magnify"><defs><filter height="300%" id="fcr0jh7s7aptw" width="300%" x="-1" y="-1"><feGaussianBlur result="blurOut" stdDeviation="2.0"/><feColorMatrix in="blurOut" result="blurOut2" type="matrix" values="0 0 0 0 0 0 0 0 0 0 0 0 0 0 0 0 0 0 .4 0"/><feOffset dx="4.0" dy="4.0" in="blurOut2" result="blurOut3"/><feBlend in="SourceGraphic" in2="blurOut3" mode="normal"/></filter></defs><g><!--class ArrayList--><rect fill="#FEFECE" filter="url(#fcr0jh7s7aptw)" height="48" id="ArrayList" style="stroke: #A80036; stroke-width: 1.5;" width="85" x="6" y="116"/><ellipse cx="21" cy="132" fill="#ADD1B2" rx="11" ry="11" style="stroke: #A80036; stroke-width: 1.0;"/><path d="M23.3438,127.6719 L23.5156,127.75 C23.7344,127.4375 23.9375,127.3438 24.2344,127.3438 C24.5313,127.3438 24.8125,127.4844 24.9688,127.75 C25.0625,127.9063 25.0781,128.0313 25.0781,128.4688 L25.0781,129.8906 C25.0781,130.3125 25.0469,130.5 24.9375,130.6563 C24.7656,130.875 24.5,131.0156 24.2344,131.0156 C24.0156,131.0156 23.7813,130.9063 23.6406,130.7656 C23.5,130.6406 23.4688,130.5156 23.4063,130.1094 C23.3125,129.7031 23.1406,129.4844 22.6563,129.2031 C22.1875,128.9531 21.5781,128.7969 21,128.7969 C19.2656,128.7969 18.0156,130.1094 18.0156,131.8906 L18.0156,132.9844 C18.0156,134.6875 19.3125,135.7813 21.3594,135.7813 C22.125,135.7813 22.8125,135.6563 23.2344,135.3906 C23.4219,135.2969 23.4219,135.2969 23.875,134.8125 C24.0625,134.625 24.2656,134.5469 24.4844,134.5469 C24.9531,134.5469 25.3438,134.9375 25.3438,135.3906 C25.3438,135.7813 25.0156,136.2344 24.4375,136.6406 C23.6875,137.1875 22.5313,137.4844 21.3125,137.4844 C18.4219,137.4844 16.3125,135.5938 16.3125,133.0156 L16.3125,131.8906 C16.3125,129.1719 18.3125,127.0938 20.9375,127.0938 C21.8125,127.0938 22.4063,127.2344 23.3438,127.6719 Z "/><text fill="#000000" font-family="sans-serif" font-size="12" lengthAdjust="spacingAndGlyphs" textLength="53" x="35" y="136.1543">ArrayList</text><line style="stroke: #A80036; stroke-width: 1.5;" x1="7" x2="90" y1="148" y2="148"/><line style="stroke: #A80036; stroke-width: 1.5;" x1="7" x2="90" y1="156" y2="156"/><!--class AbstractList--><rect fill="#FEFECE" filter="url(#fcr0jh7s7aptw)" height="48" id="AbstractList" style="stroke: #A80036; stroke-width: 1.5;" width="106" x="146.5" y="8"/><ellipse cx="161.5" cy="24" fill="#ADD1B2" rx="11" ry="11" style="stroke: #A80036; stroke-width: 1.0;"/><path d="M163.8438,19.6719 L164.0156,19.75 C164.2344,19.4375 164.4375,19.3438 164.7344,19.3438 C165.0313,19.3438 165.3125,19.4844 165.4688,19.75 C165.5625,19.9063 165.5781,20.0313 165.5781,20.4688 L165.5781,21.8906 C165.5781,22.3125 165.5469,22.5 165.4375,22.6563 C165.2656,22.875 165,23.0156 164.7344,23.0156 C164.5156,23.0156 164.2813,22.9063 164.1406,22.7656 C164,22.6406 163.9688,22.5156 163.9063,22.1094 C163.8125,21.7031 163.6406,21.4844 163.1563,21.2031 C162.6875,20.9531 162.0781,20.7969 161.5,20.7969 C159.7656,20.7969 158.5156,22.1094 158.5156,23.8906 L158.5156,24.9844 C158.5156,26.6875 159.8125,27.7813 161.8594,27.7813 C162.625,27.7813 163.3125,27.6563 163.7344,27.3906 C163.9219,27.2969 163.9219,27.2969 164.375,26.8125 C164.5625,26.625 164.7656,26.5469 164.9844,26.5469 C165.4531,26.5469 165.8438,26.9375 165.8438,27.3906 C165.8438,27.7813 165.5156,28.2344 164.9375,28.6406 C164.1875,29.1875 163.0313,29.4844 161.8125,29.4844 C158.9219,29.4844 156.8125,27.5938 156.8125,25.0156 L156.8125,23.8906 C156.8125,21.1719 158.8125,19.0938 161.4375,19.0938 C162.3125,19.0938 162.9063,19.2344 163.8438,19.6719 Z "/><text fill="#000000" font-family="sans-serif" font-size="12" lengthAdjust="spacingAndGlyphs" textLength="74" x="175.5" y="28.1543">AbstractList</text><line style="stroke: #A80036; stroke-width: 1.5;" x1="147.5" x2="251.5" y1="40" y2="40"/><line style="stroke: #A80036; stroke-width: 1.5;" x1="147.5" x2="251.5" y1="48" y2="48"/><!--class AbstractCollection--><rect fill="#FEFECE" filter="url(#fcr0jh7s7aptw)" height="48" id="AbstractCollection" style="stroke: #A80036; stroke-width: 1.5;" width="146" x="126.5" y="116"/><ellipse cx="141.5" cy="132" fill="#ADD1B2" rx="11" ry="11" style="stroke: #A80036; stroke-width: 1.0;"/><path d="M143.8438,127.6719 L144.0156,127.75 C144.2344,127.4375 144.4375,127.3438 144.7344,127.3438 C145.0313,127.3438 145.3125,127.4844 145.4688,127.75 C145.5625,127.9063 145.5781,128.0313 145.5781,128.4688 L145.5781,129.8906 C145.5781,130.3125 145.5469,130.5 145.4375,130.6563 C145.2656,130.875 145,131.0156 144.7344,131.0156 C144.5156,131.0156 144.2813,130.9063 144.1406,130.7656 C144,130.6406 143.9688,130.5156 143.9063,130.1094 C143.8125,129.7031 143.6406,129.4844 143.1563,129.2031 C142.6875,128.9531 142.0781,128.7969 141.5,128.7969 C139.7656,128.7969 138.5156,130.1094 138.5156,131.8906 L138.5156,132.9844 C138.5156,134.6875 139.8125,135.7813 141.8594,135.7813 C142.625,135.7813 143.3125,135.6563 143.7344,135.3906 C143.9219,135.2969 143.9219,135.2969 144.375,134.8125 C144.5625,134.625 144.7656,134.5469 144.9844,134.5469 C145.4531,134.5469 145.8438,134.9375 145.8438,135.3906 C145.8438,135.7813 145.5156,136.2344 144.9375,136.6406 C144.1875,137.1875 143.0313,137.4844 141.8125,137.4844 C138.9219,137.4844 136.8125,135.5938 136.8125,133.0156 L136.8125,131.8906 C136.8125,129.1719 138.8125,127.0938 141.4375,127.0938 C142.3125,127.0938 142.9063,127.2344 143.8438,127.6719 Z "/><text fill="#000000" font-family="sans-serif" font-size="12" lengthAdjust="spacingAndGlyphs" textLength="114" x="155.5" y="136.1543">AbstractCollection</text><line style="stroke: #A80036; stroke-width: 1.5;" x1="127.5" x2="271.5" y1="148" y2="148"/><line style="stroke: #A80036; stroke-width: 1.5;" x1="127.5" x2="271.5" y1="156" y2="156"/><!--class List--><rect fill="#FEFECE" filter="url(#fcr0jh7s7aptw)" height="48" id="List" style="stroke: #A80036; stroke-width: 1.5;" width="53" x="308" y="116"/><ellipse cx="323" cy="132" fill="#B4A7E5" rx="11" ry="11" style="stroke: #A80036; stroke-width: 1.0;"/><path d="M323.9531,128.7813 L323.9531,135.2969 L325.6719,135.2969 C326.125,135.2969 326.2656,135.3281 326.4375,135.4531 C326.6719,135.625 326.7813,135.875 326.7813,136.1563 C326.7813,136.7188 326.4219,137 325.6719,137 L320.5313,137 C320.125,137 319.9219,136.9531 319.7656,136.8281 C319.5469,136.6719 319.4063,136.4063 319.4063,136.1563 C319.4063,135.8594 319.5625,135.5781 319.8125,135.4219 C319.9688,135.3125 320.0938,135.2969 320.5313,135.2969 L322.25,135.2969 L322.25,128.7813 L320.5313,128.7813 C320.1094,128.7813 319.9219,128.75 319.7656,128.6406 C319.5469,128.4688 319.4063,128.2188 319.4063,127.9375 C319.4063,127.6563 319.5625,127.3594 319.8125,127.2031 C319.9688,127.1094 320.0938,127.0938 320.5313,127.0938 L325.6719,127.0938 C326.125,127.0938 326.2656,127.125 326.4375,127.2344 C326.6719,127.4063 326.7813,127.6719 326.7813,127.9375 C326.7813,128.2344 326.6406,128.5156 326.375,128.6719 C326.25,128.75 326.0625,128.7813 325.6719,128.7813 Z "/><text fill="#000000" font-family="sans-serif" font-size="12" font-style="italic" lengthAdjust="spacingAndGlyphs" textLength="21" x="337" y="136.1543">List</text><line style="stroke: #A80036; stroke-width: 1.5;" x1="309" x2="360" y1="148" y2="148"/><line style="stroke: #A80036; stroke-width: 1.5;" x1="309" x2="360" y1="156" y2="156"/><!--class Collection--><rect fill="#FEFECE" filter="url(#fcr0jh7s7aptw)" height="48" id="Collection" style="stroke: #A80036; stroke-width: 1.5;" width="93" x="220" y="224"/><ellipse cx="235" cy="240" fill="#B4A7E5" rx="11" ry="11" style="stroke: #A80036; stroke-width: 1.0;"/><path d="M235.9531,236.7813 L235.9531,243.2969 L237.6719,243.2969 C238.125,243.2969 238.2656,243.3281 238.4375,243.4531 C238.6719,243.625 238.7813,243.875 238.7813,244.1563 C238.7813,244.7188 238.4219,245 237.6719,245 L232.5313,245 C232.125,245 231.9219,244.9531 231.7656,244.8281 C231.5469,244.6719 231.4063,244.4063 231.4063,244.1563 C231.4063,243.8594 231.5625,243.5781 231.8125,243.4219 C231.9688,243.3125 232.0938,243.2969 232.5313,243.2969 L234.25,243.2969 L234.25,236.7813 L232.5313,236.7813 C232.1094,236.7813 231.9219,236.75 231.7656,236.6406 C231.5469,236.4688 231.4063,236.2188 231.4063,235.9375 C231.4063,235.6563 231.5625,235.3594 231.8125,235.2031 C231.9688,235.1094 232.0938,235.0938 232.5313,235.0938 L237.6719,235.0938 C238.125,235.0938 238.2656,235.125 238.4375,235.2344 C238.6719,235.4063 238.7813,235.6719 238.7813,235.9375 C238.7813,236.2344 238.6406,236.5156 238.375,236.6719 C238.25,236.75 238.0625,236.7813 237.6719,236.7813 Z "/><text fill="#000000" font-family="sans-serif" font-size="12" font-style="italic" lengthAdjust="spacingAndGlyphs" textLength="61" x="249" y="244.1543">Collection</text><line style="stroke: #A80036; stroke-width: 1.5;" x1="221" x2="312" y1="256" y2="256"/><line style="stroke: #A80036; stroke-width: 1.5;" x1="221" x2="312" y1="264" y2="264"/><!--class Iterable--><rect fill="#FEFECE" filter="url(#fcr0jh7s7aptw)" height="48" id="Iterable" style="stroke: #A80036; stroke-width: 1.5;" width="81" x="226" y="332"/><ellipse cx="241" cy="348" fill="#B4A7E5" rx="11" ry="11" style="stroke: #A80036; stroke-width: 1.0;"/><path d="M241.9531,344.7813 L241.9531,351.2969 L243.6719,351.2969 C244.125,351.2969 244.2656,351.3281 244.4375,351.4531 C244.6719,351.625 244.7813,351.875 244.7813,352.1563 C244.7813,352.7188 244.4219,353 243.6719,353 L238.5313,353 C238.125,353 237.9219,352.9531 237.7656,352.8281 C237.5469,352.6719 237.4063,352.4063 237.4063,352.1563 C237.4063,351.8594 237.5625,351.5781 237.8125,351.4219 C237.9688,351.3125 238.0938,351.2969 238.5313,351.2969 L240.25,351.2969 L240.25,344.7813 L238.5313,344.7813 C238.1094,344.7813 237.9219,344.75 237.7656,344.6406 C237.5469,344.4688 237.4063,344.2188 237.4063,343.9375 C237.4063,343.6563 237.5625,343.3594 237.8125,343.2031 C237.9688,343.1094 238.0938,343.0938 238.5313,343.0938 L243.6719,343.0938 C244.125,343.0938 244.2656,343.125 244.4375,343.2344 C244.6719,343.4063 244.7813,343.6719 244.7813,343.9375 C244.7813,344.2344 244.6406,344.5156 244.375,344.6719 C244.25,344.75 244.0625,344.7813 243.6719,344.7813 Z "/><text fill="#000000" font-family="sans-serif" font-size="12" font-style="italic" lengthAdjust="spacingAndGlyphs" textLength="49" x="255" y="352.1543">Iterable</text><line style="stroke: #A80036; stroke-width: 1.5;" x1="227" x2="306" y1="364" y2="364"/><line style="stroke: #A80036; stroke-width: 1.5;" x1="227" x2="306" y1="372" y2="372"/><!--link AbstractList to ArrayList--><path d="M150.337,67.512 C127.77,83.354 101.6143,101.714 81.4612,115.862 " fill="none" id="AbstractList-ArrayList" style="stroke: #A80036; stroke-width: 1.0;"/><polygon fill="none" points="146.344,61.762,166.735,56,154.388,73.221,146.344,61.762" style="stroke: #A80036; stroke-width: 1.0;"/><!--link AbstractList to AbstractCollection--><path d="M199.5,76.024 C199.5,89.579 199.5,104.038 199.5,115.678 " fill="none" id="AbstractList-AbstractCollection" style="stroke: #A80036; stroke-width: 1.0;"/><polygon fill="none" points="192.5,76,199.5,56,206.5,76,192.5,76" style="stroke: #A80036; stroke-width: 1.0;"/><!--link AbstractList to List--><path d="M244.657,68.456 C265.517,84.835 289.586,103.734 307.558,117.846 " fill="none" id="AbstractList-List" style="stroke: #A80036; stroke-width: 1.0; stroke-dasharray: 7.0,7.0;"/><polygon fill="none" points="240.2,73.857,228.793,56,248.846,62.846,240.2,73.857" style="stroke: #A80036; stroke-width: 1.0;"/><!--link AbstractCollection to Collection--><path d="M224.868,181.134 C233.948,195.499 243.876,211.207 251.759,223.678 " fill="none" id="AbstractCollection-Collection" style="stroke: #A80036; stroke-width: 1.0; stroke-dasharray: 7.0,7.0;"/><polygon fill="none" points="218.807,184.646,214.038,164,230.641,177.166,218.807,184.646" style="stroke: #A80036; stroke-width: 1.0;"/><!--link Collection to Iterable--><path d="M266.5,292.0236 C266.5,305.5792 266.5,320.0381 266.5,331.6784 " fill="none" id="Collection-Iterable" style="stroke: #A80036; stroke-width: 1.0; stroke-dasharray: 7.0,7.0;"/><polygon fill="none" points="259.5,292.0005,266.5,272,273.5,292.0004,259.5,292.0005" style="stroke: #A80036; stroke-width: 1.0;"/><!--link List to Collection--><path d="M308.754,181.134 C299.538,195.499 289.462,211.207 281.461,223.678 " fill="none" id="List-Collection" style="stroke: #A80036; stroke-width: 1.0; stroke-dasharray: 7.0,7.0;"/><polygon fill="none" points="303.054,177.055,319.745,164,314.838,184.614,303.054,177.055" style="stroke: #A80036; stroke-width: 1.0;"/><!--
@startuml
class ArrayList
class AbstractList
class AbstractCollection

interface List
interface Collection
interface Iterable

AbstractList<|- - ArrayList
AbstractList<|- - AbstractCollection

AbstractList<|.. List
AbstractCollection<|.. Collection
Collection<|.. Iterable
List<|.. Collection
@enduml

PlantUML version 1.2019.01(Sat Feb 09 15:32:04 UTC 2019)
(GPL source distribution)
Java Runtime: Java(TM) SE Runtime Environment
JVM: Java HotSpot(TM) 64-Bit Server VM
Java Version: 1.7.0_25-b15
Operating System: Linux
Default Encoding: UTF-8
Language: en
Country: US
--></g></svg>