<?xml version="1.0" encoding="UTF-8" standalone="no"?><svg xmlns="http://www.w3.org/2000/svg" xmlns:xlink="http://www.w3.org/1999/xlink" contentScriptType="application/ecmascript" contentStyleType="text/css" height="607px" preserveAspectRatio="none" style="width:637px;height:607px;" version="1.1" viewBox="0 0 637 607" width="637px" zoomAndPan="magnify"><defs><filter height="300%" id="f1m1uh9zjiz2cg" width="300%" x="-1" y="-1"><feGaussianBlur result="blurOut" stdDeviation="2.0"/><feColorMatrix in="blurOut" result="blurOut2" type="matrix" values="0 0 0 0 0 0 0 0 0 0 0 0 0 0 0 0 0 0 .4 0"/><feOffset dx="4.0" dy="4.0" in="blurOut2" result="blurOut3"/><feBlend in="SourceGraphic" in2="blurOut3" mode="normal"/></filter></defs><g><!--class Iterable--><rect fill="#FEFECE" filter="url(#f1m1uh9zjiz2cg)" height="48" id="Iterable" style="stroke: #A80036; stroke-width: 1.5;" width="81" x="92" y="548"/><ellipse cx="107" cy="564" fill="#B4A7E5" rx="11" ry="11" style="stroke: #A80036; stroke-width: 1.0;"/><path d="M107.9531,560.7813 L107.9531,567.2969 L109.6719,567.2969 C110.125,567.2969 110.2656,567.3281 110.4375,567.4531 C110.6719,567.625 110.7813,567.875 110.7813,568.1563 C110.7813,568.7188 110.4219,569 109.6719,569 L104.5313,569 C104.125,569 103.9219,568.9531 103.7656,568.8281 C103.5469,568.6719 103.4063,568.4063 103.4063,568.1563 C103.4063,567.8594 103.5625,567.5781 103.8125,567.4219 C103.9688,567.3125 104.0938,567.2969 104.5313,567.2969 L106.25,567.2969 L106.25,560.7813 L104.5313,560.7813 C104.1094,560.7813 103.9219,560.75 103.7656,560.6406 C103.5469,560.4688 103.4063,560.2188 103.4063,559.9375 C103.4063,559.6563 103.5625,559.3594 103.8125,559.2031 C103.9688,559.1094 104.0938,559.0938 104.5313,559.0938 L109.6719,559.0938 C110.125,559.0938 110.2656,559.125 110.4375,559.2344 C110.6719,559.4063 110.7813,559.6719 110.7813,559.9375 C110.7813,560.2344 110.6406,560.5156 110.375,560.6719 C110.25,560.75 110.0625,560.7813 109.6719,560.7813 Z "/><text fill="#000000" font-family="sans-serif" font-size="12" font-style="italic" lengthAdjust="spacingAndGlyphs" textLength="49" x="121" y="568.1543">Iterable</text><line style="stroke: #A80036; stroke-width: 1.5;" x1="93" x2="172" y1="580" y2="580"/><line style="stroke: #A80036; stroke-width: 1.5;" x1="93" x2="172" y1="588" y2="588"/><!--class Collection--><rect fill="#FEFECE" filter="url(#f1m1uh9zjiz2cg)" height="48" id="Collection" style="stroke: #A80036; stroke-width: 1.5;" width="93" x="86" y="440"/><ellipse cx="101" cy="456" fill="#B4A7E5" rx="11" ry="11" style="stroke: #A80036; stroke-width: 1.0;"/><path d="M101.9531,452.7813 L101.9531,459.2969 L103.6719,459.2969 C104.125,459.2969 104.2656,459.3281 104.4375,459.4531 C104.6719,459.625 104.7813,459.875 104.7813,460.1563 C104.7813,460.7188 104.4219,461 103.6719,461 L98.5313,461 C98.125,461 97.9219,460.9531 97.7656,460.8281 C97.5469,460.6719 97.4063,460.4063 97.4063,460.1563 C97.4063,459.8594 97.5625,459.5781 97.8125,459.4219 C97.9688,459.3125 98.0938,459.2969 98.5313,459.2969 L100.25,459.2969 L100.25,452.7813 L98.5313,452.7813 C98.1094,452.7813 97.9219,452.75 97.7656,452.6406 C97.5469,452.4688 97.4063,452.2188 97.4063,451.9375 C97.4063,451.6563 97.5625,451.3594 97.8125,451.2031 C97.9688,451.1094 98.0938,451.0938 98.5313,451.0938 L103.6719,451.0938 C104.125,451.0938 104.2656,451.125 104.4375,451.2344 C104.6719,451.4063 104.7813,451.6719 104.7813,451.9375 C104.7813,452.2344 104.6406,452.5156 104.375,452.6719 C104.25,452.75 104.0625,452.7813 103.6719,452.7813 Z "/><text fill="#000000" font-family="sans-serif" font-size="12" font-style="italic" lengthAdjust="spacingAndGlyphs" textLength="61" x="115" y="460.1543">Collection</text><line style="stroke: #A80036; stroke-width: 1.5;" x1="87" x2="178" y1="472" y2="472"/><line style="stroke: #A80036; stroke-width: 1.5;" x1="87" x2="178" y1="480" y2="480"/><!--class List--><rect fill="#FEFECE" filter="url(#f1m1uh9zjiz2cg)" height="48" id="List" style="stroke: #A80036; stroke-width: 1.5;" width="53" x="106" y="332"/><ellipse cx="121" cy="348" fill="#B4A7E5" rx="11" ry="11" style="stroke: #A80036; stroke-width: 1.0;"/><path d="M121.9531,344.7813 L121.9531,351.2969 L123.6719,351.2969 C124.125,351.2969 124.2656,351.3281 124.4375,351.4531 C124.6719,351.625 124.7813,351.875 124.7813,352.1563 C124.7813,352.7188 124.4219,353 123.6719,353 L118.5313,353 C118.125,353 117.9219,352.9531 117.7656,352.8281 C117.5469,352.6719 117.4063,352.4063 117.4063,352.1563 C117.4063,351.8594 117.5625,351.5781 117.8125,351.4219 C117.9688,351.3125 118.0938,351.2969 118.5313,351.2969 L120.25,351.2969 L120.25,344.7813 L118.5313,344.7813 C118.1094,344.7813 117.9219,344.75 117.7656,344.6406 C117.5469,344.4688 117.4063,344.2188 117.4063,343.9375 C117.4063,343.6563 117.5625,343.3594 117.8125,343.2031 C117.9688,343.1094 118.0938,343.0938 118.5313,343.0938 L123.6719,343.0938 C124.125,343.0938 124.2656,343.125 124.4375,343.2344 C124.6719,343.4063 124.7813,343.6719 124.7813,343.9375 C124.7813,344.2344 124.6406,344.5156 124.375,344.6719 C124.25,344.75 124.0625,344.7813 123.6719,344.7813 Z "/><text fill="#000000" font-family="sans-serif" font-size="12" font-style="italic" lengthAdjust="spacingAndGlyphs" textLength="21" x="135" y="352.1543">List</text><line style="stroke: #A80036; stroke-width: 1.5;" x1="107" x2="158" y1="364" y2="364"/><line style="stroke: #A80036; stroke-width: 1.5;" x1="107" x2="158" y1="372" y2="372"/><!--class Deque--><rect fill="#FEFECE" filter="url(#f1m1uh9zjiz2cg)" height="48" id="Deque" style="stroke: #A80036; stroke-width: 1.5;" width="73" x="6" y="116"/><ellipse cx="21" cy="132" fill="#B4A7E5" rx="11" ry="11" style="stroke: #A80036; stroke-width: 1.0;"/><path d="M21.9531,128.7813 L21.9531,135.2969 L23.6719,135.2969 C24.125,135.2969 24.2656,135.3281 24.4375,135.4531 C24.6719,135.625 24.7813,135.875 24.7813,136.1563 C24.7813,136.7188 24.4219,137 23.6719,137 L18.5313,137 C18.125,137 17.9219,136.9531 17.7656,136.8281 C17.5469,136.6719 17.4063,136.4063 17.4063,136.1563 C17.4063,135.8594 17.5625,135.5781 17.8125,135.4219 C17.9688,135.3125 18.0938,135.2969 18.5313,135.2969 L20.25,135.2969 L20.25,128.7813 L18.5313,128.7813 C18.1094,128.7813 17.9219,128.75 17.7656,128.6406 C17.5469,128.4688 17.4063,128.2188 17.4063,127.9375 C17.4063,127.6563 17.5625,127.3594 17.8125,127.2031 C17.9688,127.1094 18.0938,127.0938 18.5313,127.0938 L23.6719,127.0938 C24.125,127.0938 24.2656,127.125 24.4375,127.2344 C24.6719,127.4063 24.7813,127.6719 24.7813,127.9375 C24.7813,128.2344 24.6406,128.5156 24.375,128.6719 C24.25,128.75 24.0625,128.7813 23.6719,128.7813 Z "/><text fill="#000000" font-family="sans-serif" font-size="12" font-style="italic" lengthAdjust="spacingAndGlyphs" textLength="41" x="35" y="136.1543">Deque</text><line style="stroke: #A80036; stroke-width: 1.5;" x1="7" x2="78" y1="148" y2="148"/><line style="stroke: #A80036; stroke-width: 1.5;" x1="7" x2="78" y1="156" y2="156"/><!--class Queue--><rect fill="#FEFECE" filter="url(#f1m1uh9zjiz2cg)" height="48" id="Queue" style="stroke: #A80036; stroke-width: 1.5;" width="72" x="6.5" y="224"/><ellipse cx="21.5" cy="240" fill="#B4A7E5" rx="11" ry="11" style="stroke: #A80036; stroke-width: 1.0;"/><path d="M22.4531,236.7813 L22.4531,243.2969 L24.1719,243.2969 C24.625,243.2969 24.7656,243.3281 24.9375,243.4531 C25.1719,243.625 25.2813,243.875 25.2813,244.1563 C25.2813,244.7188 24.9219,245 24.1719,245 L19.0313,245 C18.625,245 18.4219,244.9531 18.2656,244.8281 C18.0469,244.6719 17.9063,244.4063 17.9063,244.1563 C17.9063,243.8594 18.0625,243.5781 18.3125,243.4219 C18.4688,243.3125 18.5938,243.2969 19.0313,243.2969 L20.75,243.2969 L20.75,236.7813 L19.0313,236.7813 C18.6094,236.7813 18.4219,236.75 18.2656,236.6406 C18.0469,236.4688 17.9063,236.2188 17.9063,235.9375 C17.9063,235.6563 18.0625,235.3594 18.3125,235.2031 C18.4688,235.1094 18.5938,235.0938 19.0313,235.0938 L24.1719,235.0938 C24.625,235.0938 24.7656,235.125 24.9375,235.2344 C25.1719,235.4063 25.2813,235.6719 25.2813,235.9375 C25.2813,236.2344 25.1406,236.5156 24.875,236.6719 C24.75,236.75 24.5625,236.7813 24.1719,236.7813 Z "/><text fill="#000000" font-family="sans-serif" font-size="12" font-style="italic" lengthAdjust="spacingAndGlyphs" textLength="40" x="35.5" y="244.1543">Queue</text><line style="stroke: #A80036; stroke-width: 1.5;" x1="7.5" x2="77.5" y1="256" y2="256"/><line style="stroke: #A80036; stroke-width: 1.5;" x1="7.5" x2="77.5" y1="264" y2="264"/><!--class Cloneable--><rect fill="#FEFECE" filter="url(#f1m1uh9zjiz2cg)" height="48" id="Cloneable" style="stroke: #A80036; stroke-width: 1.5;" width="94" x="185.5" y="116"/><ellipse cx="200.5" cy="132" fill="#B4A7E5" rx="11" ry="11" style="stroke: #A80036; stroke-width: 1.0;"/><path d="M201.4531,128.7813 L201.4531,135.2969 L203.1719,135.2969 C203.625,135.2969 203.7656,135.3281 203.9375,135.4531 C204.1719,135.625 204.2813,135.875 204.2813,136.1563 C204.2813,136.7188 203.9219,137 203.1719,137 L198.0313,137 C197.625,137 197.4219,136.9531 197.2656,136.8281 C197.0469,136.6719 196.9063,136.4063 196.9063,136.1563 C196.9063,135.8594 197.0625,135.5781 197.3125,135.4219 C197.4688,135.3125 197.5938,135.2969 198.0313,135.2969 L199.75,135.2969 L199.75,128.7813 L198.0313,128.7813 C197.6094,128.7813 197.4219,128.75 197.2656,128.6406 C197.0469,128.4688 196.9063,128.2188 196.9063,127.9375 C196.9063,127.6563 197.0625,127.3594 197.3125,127.2031 C197.4688,127.1094 197.5938,127.0938 198.0313,127.0938 L203.1719,127.0938 C203.625,127.0938 203.7656,127.125 203.9375,127.2344 C204.1719,127.4063 204.2813,127.6719 204.2813,127.9375 C204.2813,128.2344 204.1406,128.5156 203.875,128.6719 C203.75,128.75 203.5625,128.7813 203.1719,128.7813 Z "/><text fill="#000000" font-family="sans-serif" font-size="12" font-style="italic" lengthAdjust="spacingAndGlyphs" textLength="62" x="214.5" y="136.1543">Cloneable</text><line style="stroke: #A80036; stroke-width: 1.5;" x1="186.5" x2="278.5" y1="148" y2="148"/><line style="stroke: #A80036; stroke-width: 1.5;" x1="186.5" x2="278.5" y1="156" y2="156"/><!--class Serializable--><rect fill="#FEFECE" filter="url(#f1m1uh9zjiz2cg)" height="48" id="Serializable" style="stroke: #A80036; stroke-width: 1.5;" width="103" x="315" y="116"/><ellipse cx="330" cy="132" fill="#B4A7E5" rx="11" ry="11" style="stroke: #A80036; stroke-width: 1.0;"/><path d="M330.9531,128.7813 L330.9531,135.2969 L332.6719,135.2969 C333.125,135.2969 333.2656,135.3281 333.4375,135.4531 C333.6719,135.625 333.7813,135.875 333.7813,136.1563 C333.7813,136.7188 333.4219,137 332.6719,137 L327.5313,137 C327.125,137 326.9219,136.9531 326.7656,136.8281 C326.5469,136.6719 326.4063,136.4063 326.4063,136.1563 C326.4063,135.8594 326.5625,135.5781 326.8125,135.4219 C326.9688,135.3125 327.0938,135.2969 327.5313,135.2969 L329.25,135.2969 L329.25,128.7813 L327.5313,128.7813 C327.1094,128.7813 326.9219,128.75 326.7656,128.6406 C326.5469,128.4688 326.4063,128.2188 326.4063,127.9375 C326.4063,127.6563 326.5625,127.3594 326.8125,127.2031 C326.9688,127.1094 327.0938,127.0938 327.5313,127.0938 L332.6719,127.0938 C333.125,127.0938 333.2656,127.125 333.4375,127.2344 C333.6719,127.4063 333.7813,127.6719 333.7813,127.9375 C333.7813,128.2344 333.6406,128.5156 333.375,128.6719 C333.25,128.75 333.0625,128.7813 332.6719,128.7813 Z "/><text fill="#000000" font-family="sans-serif" font-size="12" font-style="italic" lengthAdjust="spacingAndGlyphs" textLength="71" x="344" y="136.1543">Serializable</text><line style="stroke: #A80036; stroke-width: 1.5;" x1="316" x2="417" y1="148" y2="148"/><line style="stroke: #A80036; stroke-width: 1.5;" x1="316" x2="417" y1="156" y2="156"/><!--class AbstractList--><rect fill="#FEFECE" filter="url(#f1m1uh9zjiz2cg)" height="48" id="AbstractList" style="stroke: #A80036; stroke-width: 1.5;" width="106" x="214.5" y="224"/><ellipse cx="229.5" cy="240" fill="#ADD1B2" rx="11" ry="11" style="stroke: #A80036; stroke-width: 1.0;"/><path d="M231.8438,235.6719 L232.0156,235.75 C232.2344,235.4375 232.4375,235.3438 232.7344,235.3438 C233.0313,235.3438 233.3125,235.4844 233.4688,235.75 C233.5625,235.9063 233.5781,236.0313 233.5781,236.4688 L233.5781,237.8906 C233.5781,238.3125 233.5469,238.5 233.4375,238.6563 C233.2656,238.875 233,239.0156 232.7344,239.0156 C232.5156,239.0156 232.2813,238.9063 232.1406,238.7656 C232,238.6406 231.9688,238.5156 231.9063,238.1094 C231.8125,237.7031 231.6406,237.4844 231.1563,237.2031 C230.6875,236.9531 230.0781,236.7969 229.5,236.7969 C227.7656,236.7969 226.5156,238.1094 226.5156,239.8906 L226.5156,240.9844 C226.5156,242.6875 227.8125,243.7813 229.8594,243.7813 C230.625,243.7813 231.3125,243.6563 231.7344,243.3906 C231.9219,243.2969 231.9219,243.2969 232.375,242.8125 C232.5625,242.625 232.7656,242.5469 232.9844,242.5469 C233.4531,242.5469 233.8438,242.9375 233.8438,243.3906 C233.8438,243.7813 233.5156,244.2344 232.9375,244.6406 C232.1875,245.1875 231.0313,245.4844 229.8125,245.4844 C226.9219,245.4844 224.8125,243.5938 224.8125,241.0156 L224.8125,239.8906 C224.8125,237.1719 226.8125,235.0938 229.4375,235.0938 C230.3125,235.0938 230.9063,235.2344 231.8438,235.6719 Z "/><text fill="#000000" font-family="sans-serif" font-size="12" lengthAdjust="spacingAndGlyphs" textLength="74" x="243.5" y="244.1543">AbstractList</text><line style="stroke: #A80036; stroke-width: 1.5;" x1="215.5" x2="319.5" y1="256" y2="256"/><line style="stroke: #A80036; stroke-width: 1.5;" x1="215.5" x2="319.5" y1="264" y2="264"/><!--class AbstractSequentialList--><rect fill="#FEFECE" filter="url(#f1m1uh9zjiz2cg)" height="48" id="AbstractSequentialList" style="stroke: #A80036; stroke-width: 1.5;" width="173" x="453" y="116"/><ellipse cx="468" cy="132" fill="#ADD1B2" rx="11" ry="11" style="stroke: #A80036; stroke-width: 1.0;"/><path d="M470.3438,127.6719 L470.5156,127.75 C470.7344,127.4375 470.9375,127.3438 471.2344,127.3438 C471.5313,127.3438 471.8125,127.4844 471.9688,127.75 C472.0625,127.9063 472.0781,128.0313 472.0781,128.4688 L472.0781,129.8906 C472.0781,130.3125 472.0469,130.5 471.9375,130.6563 C471.7656,130.875 471.5,131.0156 471.2344,131.0156 C471.0156,131.0156 470.7813,130.9063 470.6406,130.7656 C470.5,130.6406 470.4688,130.5156 470.4063,130.1094 C470.3125,129.7031 470.1406,129.4844 469.6563,129.2031 C469.1875,128.9531 468.5781,128.7969 468,128.7969 C466.2656,128.7969 465.0156,130.1094 465.0156,131.8906 L465.0156,132.9844 C465.0156,134.6875 466.3125,135.7813 468.3594,135.7813 C469.125,135.7813 469.8125,135.6563 470.2344,135.3906 C470.4219,135.2969 470.4219,135.2969 470.875,134.8125 C471.0625,134.625 471.2656,134.5469 471.4844,134.5469 C471.9531,134.5469 472.3438,134.9375 472.3438,135.3906 C472.3438,135.7813 472.0156,136.2344 471.4375,136.6406 C470.6875,137.1875 469.5313,137.4844 468.3125,137.4844 C465.4219,137.4844 463.3125,135.5938 463.3125,133.0156 L463.3125,131.8906 C463.3125,129.1719 465.3125,127.0938 467.9375,127.0938 C468.8125,127.0938 469.4063,127.2344 470.3438,127.6719 Z "/><text fill="#000000" font-family="sans-serif" font-size="12" lengthAdjust="spacingAndGlyphs" textLength="141" x="482" y="136.1543">AbstractSequentialList</text><line style="stroke: #A80036; stroke-width: 1.5;" x1="454" x2="625" y1="148" y2="148"/><line style="stroke: #A80036; stroke-width: 1.5;" x1="454" x2="625" y1="156" y2="156"/><!--class AbstractCollection--><rect fill="#FEFECE" filter="url(#f1m1uh9zjiz2cg)" height="48" id="AbstractCollection" style="stroke: #A80036; stroke-width: 1.5;" width="146" x="194.5" y="332"/><ellipse cx="209.5" cy="348" fill="#ADD1B2" rx="11" ry="11" style="stroke: #A80036; stroke-width: 1.0;"/><path d="M211.8438,343.6719 L212.0156,343.75 C212.2344,343.4375 212.4375,343.3438 212.7344,343.3438 C213.0313,343.3438 213.3125,343.4844 213.4688,343.75 C213.5625,343.9063 213.5781,344.0313 213.5781,344.4688 L213.5781,345.8906 C213.5781,346.3125 213.5469,346.5 213.4375,346.6563 C213.2656,346.875 213,347.0156 212.7344,347.0156 C212.5156,347.0156 212.2813,346.9063 212.1406,346.7656 C212,346.6406 211.9688,346.5156 211.9063,346.1094 C211.8125,345.7031 211.6406,345.4844 211.1563,345.2031 C210.6875,344.9531 210.0781,344.7969 209.5,344.7969 C207.7656,344.7969 206.5156,346.1094 206.5156,347.8906 L206.5156,348.9844 C206.5156,350.6875 207.8125,351.7813 209.8594,351.7813 C210.625,351.7813 211.3125,351.6563 211.7344,351.3906 C211.9219,351.2969 211.9219,351.2969 212.375,350.8125 C212.5625,350.625 212.7656,350.5469 212.9844,350.5469 C213.4531,350.5469 213.8438,350.9375 213.8438,351.3906 C213.8438,351.7813 213.5156,352.2344 212.9375,352.6406 C212.1875,353.1875 211.0313,353.4844 209.8125,353.4844 C206.9219,353.4844 204.8125,351.5938 204.8125,349.0156 L204.8125,347.8906 C204.8125,345.1719 206.8125,343.0938 209.4375,343.0938 C210.3125,343.0938 210.9063,343.2344 211.8438,343.6719 Z "/><text fill="#000000" font-family="sans-serif" font-size="12" lengthAdjust="spacingAndGlyphs" textLength="114" x="223.5" y="352.1543">AbstractCollection</text><line style="stroke: #A80036; stroke-width: 1.5;" x1="195.5" x2="339.5" y1="364" y2="364"/><line style="stroke: #A80036; stroke-width: 1.5;" x1="195.5" x2="339.5" y1="372" y2="372"/><!--class LinkedList--><rect fill="#FEFECE" filter="url(#f1m1uh9zjiz2cg)" height="48" id="LinkedList" style="stroke: #A80036; stroke-width: 1.5;" width="93" x="186" y="8"/><ellipse cx="201" cy="24" fill="#ADD1B2" rx="11" ry="11" style="stroke: #A80036; stroke-width: 1.0;"/><path d="M203.3438,19.6719 L203.5156,19.75 C203.7344,19.4375 203.9375,19.3438 204.2344,19.3438 C204.5313,19.3438 204.8125,19.4844 204.9688,19.75 C205.0625,19.9063 205.0781,20.0313 205.0781,20.4688 L205.0781,21.8906 C205.0781,22.3125 205.0469,22.5 204.9375,22.6563 C204.7656,22.875 204.5,23.0156 204.2344,23.0156 C204.0156,23.0156 203.7813,22.9063 203.6406,22.7656 C203.5,22.6406 203.4688,22.5156 203.4063,22.1094 C203.3125,21.7031 203.1406,21.4844 202.6563,21.2031 C202.1875,20.9531 201.5781,20.7969 201,20.7969 C199.2656,20.7969 198.0156,22.1094 198.0156,23.8906 L198.0156,24.9844 C198.0156,26.6875 199.3125,27.7813 201.3594,27.7813 C202.125,27.7813 202.8125,27.6563 203.2344,27.3906 C203.4219,27.2969 203.4219,27.2969 203.875,26.8125 C204.0625,26.625 204.2656,26.5469 204.4844,26.5469 C204.9531,26.5469 205.3438,26.9375 205.3438,27.3906 C205.3438,27.7813 205.0156,28.2344 204.4375,28.6406 C203.6875,29.1875 202.5313,29.4844 201.3125,29.4844 C198.4219,29.4844 196.3125,27.5938 196.3125,25.0156 L196.3125,23.8906 C196.3125,21.1719 198.3125,19.0938 200.9375,19.0938 C201.8125,19.0938 202.4063,19.2344 203.3438,19.6719 Z "/><text fill="#000000" font-family="sans-serif" font-size="12" lengthAdjust="spacingAndGlyphs" textLength="61" x="215" y="28.1543">LinkedList</text><line style="stroke: #A80036; stroke-width: 1.5;" x1="187" x2="278" y1="40" y2="40"/><line style="stroke: #A80036; stroke-width: 1.5;" x1="187" x2="278" y1="48" y2="48"/><!--link Collection to Iterable--><path d="M132.5,493.131 C132.5,510.1538 132.5,531.6037 132.5,547.6784 " fill="none" id="Collection-Iterable" style="stroke: #A80036; stroke-width: 1.0; stroke-dasharray: 7.0,7.0;"/><polygon fill="#A80036" points="132.5,488,128.5,497,132.5,493,136.5,497,132.5,488" style="stroke: #A80036; stroke-width: 1.0;"/><!--link List to Collection--><path d="M132.5,385.131 C132.5,402.154 132.5,423.604 132.5,439.678 " fill="none" id="List-Collection" style="stroke: #A80036; stroke-width: 1.0; stroke-dasharray: 7.0,7.0;"/><polygon fill="#A80036" points="132.5,380,128.5,389,132.5,385,136.5,389,132.5,380" style="stroke: #A80036; stroke-width: 1.0;"/><!--link Queue to Collection--><path d="M50.9747,276.957 C59.4245,303.802 73.305,345.284 88.5,380 C97.5899,400.768 109.781,423.453 119.025,439.85 " fill="none" id="Queue-Collection" style="stroke: #A80036; stroke-width: 1.0; stroke-dasharray: 7.0,7.0;"/><polygon fill="#A80036" points="49.461,272.119,48.3306,281.9028,50.9539,276.8909,55.9657,279.5142,49.461,272.119" style="stroke: #A80036; stroke-width: 1.0;"/><!--link Deque to Queue--><path d="M42.5,169.131 C42.5,186.154 42.5,207.604 42.5,223.678 " fill="none" id="Deque-Queue" style="stroke: #A80036; stroke-width: 1.0; stroke-dasharray: 7.0,7.0;"/><polygon fill="#A80036" points="42.5,164,38.5,173,42.5,169,46.5,173,42.5,164" style="stroke: #A80036; stroke-width: 1.0;"/><!--link AbstractCollection to Collection--><path d="M234.17,383.17 C212.123,400.482 183.469,422.98 162.202,439.678 " fill="none" id="AbstractCollection-Collection" style="stroke: #A80036; stroke-width: 1.0; stroke-dasharray: 7.0,7.0;"/><polygon fill="#A80036" points="238.207,380,228.6577,382.4107,234.274,383.0873,233.5974,388.7035,238.207,380" style="stroke: #A80036; stroke-width: 1.0;"/><!--link AbstractList to List--><path d="M234,275.304 C211.004,293.359 180.884,317.01 159.442,333.846 " fill="none" id="AbstractList-List" style="stroke: #A80036; stroke-width: 1.0; stroke-dasharray: 7.0,7.0;"/><polygon fill="#A80036" points="238.207,272,228.6577,274.4107,234.274,275.0873,233.5974,280.7035,238.207,272" style="stroke: #A80036; stroke-width: 1.0;"/><!--link LinkedList to List--><path d="M205.453,59.979 C191.852,75.167 176.406,95.219 167.5,116 C135.701,190.199 131.934,287.948 132.022,331.876 " fill="none" id="LinkedList-List" style="stroke: #A80036; stroke-width: 1.0; stroke-dasharray: 7.0,7.0;"/><polygon fill="#A80036" points="208.866,56.225,199.8526,60.1948,205.5031,59.9251,205.7728,65.5755,208.866,56.225" style="stroke: #A80036; stroke-width: 1.0;"/><!--link LinkedList to Deque--><path d="M186.897,58.442 C153.896,76.853 109.878,101.41 79.1515,118.552 " fill="none" id="LinkedList-Deque" style="stroke: #A80036; stroke-width: 1.0; stroke-dasharray: 7.0,7.0;"/><polygon fill="#A80036" points="191.273,56,181.4645,56.8905,186.9063,58.4355,185.3613,63.8773,191.273,56" style="stroke: #A80036; stroke-width: 1.0;"/><!--link LinkedList to Serializable--><path d="M265.583,59.17 C287.467,76.482 315.909,98.98 337.018,115.678 " fill="none" id="LinkedList-Serializable" style="stroke: #A80036; stroke-width: 1.0; stroke-dasharray: 7.0,7.0;"/><polygon fill="#A80036" points="261.576,56,266.1538,64.7203,265.4977,59.1016,271.1164,58.4456,261.576,56" style="stroke: #A80036; stroke-width: 1.0;"/><!--link LinkedList to Cloneable--><path d="M232.5,61.131 C232.5,78.154 232.5,99.604 232.5,115.678 " fill="none" id="LinkedList-Cloneable" style="stroke: #A80036; stroke-width: 1.0; stroke-dasharray: 7.0,7.0;"/><polygon fill="#A80036" points="232.5,56,228.5,65,232.5,61,236.5,65,232.5,56" style="stroke: #A80036; stroke-width: 1.0;"/><!--link LinkedList to AbstractSequentialList--><path d="M284.054,50.8 C335.903,68.703 416.076,96.385 472.754,115.954 " fill="none" id="LinkedList-AbstractSequentialList" style="stroke: #A80036; stroke-width: 1.0;"/><polygon fill="#A80036" points="279.127,49.099,286.329,55.817,283.8533,50.7306,288.9396,48.2549,279.127,49.099" style="stroke: #A80036; stroke-width: 1.0;"/><!--link AbstractSequentialList to AbstractList--><path d="M475.688,165.868 C428.609,184.215 365.279,208.895 320.873,226.2 " fill="none" id="AbstractSequentialList-AbstractList" style="stroke: #A80036; stroke-width: 1.0;"/><polygon fill="#A80036" points="480.48,164,470.6419,163.5404,475.8212,165.8153,473.5463,170.9945,480.48,164" style="stroke: #A80036; stroke-width: 1.0;"/><!--link AbstractList to AbstractCollection--><path d="M267.5,277.131 C267.5,294.154 267.5,315.604 267.5,331.678 " fill="none" id="AbstractList-AbstractCollection" style="stroke: #A80036; stroke-width: 1.0;"/><polygon fill="#A80036" points="267.5,272,263.5,281,267.5,277,271.5,281,267.5,272" style="stroke: #A80036; stroke-width: 1.0;"/><!--
@startuml
interface Iterable
interface Collection
interface List
interface Deque
interface Queue
interface Cloneable
interface Serializable

class AbstractList
class AbstractSequentialList
class AbstractCollection
class LinkedList

Collection<.. Iterable
List<.. Collection
Queue<.. Collection
Deque<.. Queue
AbstractCollection<.. Collection
AbstractList<.. List
LinkedList<.. List
LinkedList<.. Deque
LinkedList<.. Serializable
LinkedList<.. Cloneable

LinkedList<- - AbstractSequentialList
AbstractSequentialList<- - AbstractList
AbstractList<- - AbstractCollection
@enduml

PlantUML version 1.2019.01(Sat Feb 09 15:32:04 UTC 2019)
(GPL source distribution)
Java Runtime: Java(TM) SE Runtime Environment
JVM: Java HotSpot(TM) 64-Bit Server VM
Java Version: 1.7.0_25-b15
Operating System: Linux
Default Encoding: UTF-8
Language: en
Country: US
--></g></svg>