<?xml version="1.0" encoding="UTF-8" standalone="no"?><svg xmlns="http://www.w3.org/2000/svg" xmlns:xlink="http://www.w3.org/1999/xlink" contentScriptType="application/ecmascript" contentStyleType="text/css" height="283px" preserveAspectRatio="none" style="width:421px;height:283px;" version="1.1" viewBox="0 0 421 283" width="421px" zoomAndPan="magnify"><defs><filter height="300%" id="f1hihiugtqq0m1" width="300%" x="-1" y="-1"><feGaussianBlur result="blurOut" stdDeviation="2.0"/><feColorMatrix in="blurOut" result="blurOut2" type="matrix" values="0 0 0 0 0 0 0 0 0 0 0 0 0 0 0 0 0 0 .4 0"/><feOffset dx="4.0" dy="4.0" in="blurOut2" result="blurOut3"/><feBlend in="SourceGraphic" in2="blurOut3" mode="normal"/></filter></defs><g><!--class Map--><rect fill="#FEFECE" filter="url(#f1hihiugtqq0m1)" height="48" id="Map" style="stroke: #A80036; stroke-width: 1.5;" width="58" x="137.025" y="224"/><ellipse cx="152.025" cy="240" fill="#B4A7E5" rx="11" ry="11" style="stroke: #A80036; stroke-width: 1.0;"/><path d="M152.9781,236.7813 L152.9781,243.2969 L154.6969,243.2969 C155.15,243.2969 155.2906,243.3281 155.4625,243.4531 C155.6969,243.625 155.8063,243.875 155.8063,244.1563 C155.8063,244.7188 155.4469,245 154.6969,245 L149.5563,245 C149.15,245 148.9469,244.9531 148.7906,244.8281 C148.5719,244.6719 148.4313,244.4063 148.4313,244.1563 C148.4313,243.8594 148.5875,243.5781 148.8375,243.4219 C148.9938,243.3125 149.1188,243.2969 149.5563,243.2969 L151.275,243.2969 L151.275,236.7813 L149.5563,236.7813 C149.1344,236.7813 148.9469,236.75 148.7906,236.6406 C148.5719,236.4688 148.4313,236.2188 148.4313,235.9375 C148.4313,235.6563 148.5875,235.3594 148.8375,235.2031 C148.9938,235.1094 149.1188,235.0938 149.5563,235.0938 L154.6969,235.0938 C155.15,235.0938 155.2906,235.125 155.4625,235.2344 C155.6969,235.4063 155.8063,235.6719 155.8063,235.9375 C155.8063,236.2344 155.6656,236.5156 155.4,236.6719 C155.275,236.75 155.0875,236.7813 154.6969,236.7813 Z "/><text fill="#000000" font-family="sans-serif" font-size="12" font-style="italic" lengthAdjust="spacingAndGlyphs" textLength="26" x="166.025" y="244.1543">Map</text><line style="stroke: #A80036; stroke-width: 1.5;" x1="138.025" x2="194.025" y1="256" y2="256"/><line style="stroke: #A80036; stroke-width: 1.5;" x1="138.025" x2="194.025" y1="264" y2="264"/><!--class Serializable--><rect fill="#FEFECE" filter="url(#f1hihiugtqq0m1)" height="48" id="Serializable" style="stroke: #A80036; stroke-width: 1.5;" width="103" x="31.5253" y="116"/><ellipse cx="46.5253" cy="132" fill="#B4A7E5" rx="11" ry="11" style="stroke: #A80036; stroke-width: 1.0;"/><path d="M47.4784,128.7813 L47.4784,135.2969 L49.1972,135.2969 C49.6503,135.2969 49.7909,135.3281 49.9628,135.4531 C50.1972,135.625 50.3066,135.875 50.3066,136.1563 C50.3066,136.7188 49.9472,137 49.1972,137 L44.0566,137 C43.6503,137 43.4472,136.9531 43.2909,136.8281 C43.0722,136.6719 42.9316,136.4063 42.9316,136.1563 C42.9316,135.8594 43.0878,135.5781 43.3378,135.4219 C43.4941,135.3125 43.6191,135.2969 44.0566,135.2969 L45.7753,135.2969 L45.7753,128.7813 L44.0566,128.7813 C43.6347,128.7813 43.4472,128.75 43.2909,128.6406 C43.0722,128.4688 42.9316,128.2188 42.9316,127.9375 C42.9316,127.6563 43.0878,127.3594 43.3378,127.2031 C43.4941,127.1094 43.6191,127.0938 44.0566,127.0938 L49.1972,127.0938 C49.6503,127.0938 49.7909,127.125 49.9628,127.2344 C50.1972,127.4063 50.3066,127.6719 50.3066,127.9375 C50.3066,128.2344 50.1659,128.5156 49.9003,128.6719 C49.7753,128.75 49.5878,128.7813 49.1972,128.7813 Z "/><text fill="#000000" font-family="sans-serif" font-size="12" font-style="italic" lengthAdjust="spacingAndGlyphs" textLength="71" x="60.5253" y="136.1543">Serializable</text><line style="stroke: #A80036; stroke-width: 1.5;" x1="32.5253" x2="133.5253" y1="148" y2="148"/><line style="stroke: #A80036; stroke-width: 1.5;" x1="32.5253" x2="133.5253" y1="156" y2="156"/><!--class Cloneable--><rect fill="#FEFECE" filter="url(#f1hihiugtqq0m1)" height="48" id="Cloneable" style="stroke: #A80036; stroke-width: 1.5;" width="94" x="170.025" y="116"/><ellipse cx="185.025" cy="132" fill="#B4A7E5" rx="11" ry="11" style="stroke: #A80036; stroke-width: 1.0;"/><path d="M185.9781,128.7813 L185.9781,135.2969 L187.6969,135.2969 C188.15,135.2969 188.2906,135.3281 188.4625,135.4531 C188.6969,135.625 188.8063,135.875 188.8063,136.1563 C188.8063,136.7188 188.4469,137 187.6969,137 L182.5563,137 C182.15,137 181.9469,136.9531 181.7906,136.8281 C181.5719,136.6719 181.4313,136.4063 181.4313,136.1563 C181.4313,135.8594 181.5875,135.5781 181.8375,135.4219 C181.9938,135.3125 182.1188,135.2969 182.5563,135.2969 L184.275,135.2969 L184.275,128.7813 L182.5563,128.7813 C182.1344,128.7813 181.9469,128.75 181.7906,128.6406 C181.5719,128.4688 181.4313,128.2188 181.4313,127.9375 C181.4313,127.6563 181.5875,127.3594 181.8375,127.2031 C181.9938,127.1094 182.1188,127.0938 182.5563,127.0938 L187.6969,127.0938 C188.15,127.0938 188.2906,127.125 188.4625,127.2344 C188.6969,127.4063 188.8063,127.6719 188.8063,127.9375 C188.8063,128.2344 188.6656,128.5156 188.4,128.6719 C188.275,128.75 188.0875,128.7813 187.6969,128.7813 Z "/><text fill="#000000" font-family="sans-serif" font-size="12" font-style="italic" lengthAdjust="spacingAndGlyphs" textLength="62" x="199.025" y="136.1543">Cloneable</text><line style="stroke: #A80036; stroke-width: 1.5;" x1="171.025" x2="263.025" y1="148" y2="148"/><line style="stroke: #A80036; stroke-width: 1.5;" x1="171.025" x2="263.025" y1="156" y2="156"/><!--class AbstractMap--><rect fill="#FEFECE" filter="url(#f1hihiugtqq0m1)" height="48" id="AbstractMap" style="stroke: #A80036; stroke-width: 1.5;" width="111" x="299.525" y="116"/><ellipse cx="314.525" cy="132" fill="#ADD1B2" rx="11" ry="11" style="stroke: #A80036; stroke-width: 1.0;"/><path d="M316.8688,127.6719 L317.0406,127.75 C317.2594,127.4375 317.4625,127.3438 317.7594,127.3438 C318.0563,127.3438 318.3375,127.4844 318.4938,127.75 C318.5875,127.9063 318.6031,128.0313 318.6031,128.4688 L318.6031,129.8906 C318.6031,130.3125 318.5719,130.5 318.4625,130.6563 C318.2906,130.875 318.025,131.0156 317.7594,131.0156 C317.5406,131.0156 317.3063,130.9063 317.1656,130.7656 C317.025,130.6406 316.9938,130.5156 316.9313,130.1094 C316.8375,129.7031 316.6656,129.4844 316.1813,129.2031 C315.7125,128.9531 315.1031,128.7969 314.525,128.7969 C312.7906,128.7969 311.5406,130.1094 311.5406,131.8906 L311.5406,132.9844 C311.5406,134.6875 312.8375,135.7813 314.8844,135.7813 C315.65,135.7813 316.3375,135.6563 316.7594,135.3906 C316.9469,135.2969 316.9469,135.2969 317.4,134.8125 C317.5875,134.625 317.7906,134.5469 318.0094,134.5469 C318.4781,134.5469 318.8688,134.9375 318.8688,135.3906 C318.8688,135.7813 318.5406,136.2344 317.9625,136.6406 C317.2125,137.1875 316.0563,137.4844 314.8375,137.4844 C311.9469,137.4844 309.8375,135.5938 309.8375,133.0156 L309.8375,131.8906 C309.8375,129.1719 311.8375,127.0938 314.4625,127.0938 C315.3375,127.0938 315.9313,127.2344 316.8688,127.6719 Z "/><text fill="#000000" font-family="sans-serif" font-size="12" lengthAdjust="spacingAndGlyphs" textLength="79" x="328.525" y="136.1543">AbstractMap</text><line style="stroke: #A80036; stroke-width: 1.5;" x1="300.525" x2="409.525" y1="148" y2="148"/><line style="stroke: #A80036; stroke-width: 1.5;" x1="300.525" x2="409.525" y1="156" y2="156"/><!--class HashMap--><rect fill="#FEFECE" filter="url(#f1hihiugtqq0m1)" height="48" id="HashMap" style="stroke: #A80036; stroke-width: 1.5;" width="90" x="105.0253" y="8"/><ellipse cx="120.0253" cy="24" fill="#ADD1B2" rx="11" ry="11" style="stroke: #A80036; stroke-width: 1.0;"/><path d="M122.3691,19.6719 L122.5409,19.75 C122.7597,19.4375 122.9628,19.3438 123.2597,19.3438 C123.5566,19.3438 123.8378,19.4844 123.9941,19.75 C124.0878,19.9063 124.1034,20.0313 124.1034,20.4688 L124.1034,21.8906 C124.1034,22.3125 124.0722,22.5 123.9628,22.6563 C123.7909,22.875 123.5253,23.0156 123.2597,23.0156 C123.0409,23.0156 122.8066,22.9063 122.6659,22.7656 C122.5253,22.6406 122.4941,22.5156 122.4316,22.1094 C122.3378,21.7031 122.1659,21.4844 121.6816,21.2031 C121.2128,20.9531 120.6034,20.7969 120.0253,20.7969 C118.2909,20.7969 117.0409,22.1094 117.0409,23.8906 L117.0409,24.9844 C117.0409,26.6875 118.3378,27.7813 120.3847,27.7813 C121.1503,27.7813 121.8378,27.6563 122.2597,27.3906 C122.4472,27.2969 122.4472,27.2969 122.9003,26.8125 C123.0878,26.625 123.2909,26.5469 123.5097,26.5469 C123.9784,26.5469 124.3691,26.9375 124.3691,27.3906 C124.3691,27.7813 124.0409,28.2344 123.4628,28.6406 C122.7128,29.1875 121.5566,29.4844 120.3378,29.4844 C117.4472,29.4844 115.3378,27.5938 115.3378,25.0156 L115.3378,23.8906 C115.3378,21.1719 117.3378,19.0938 119.9628,19.0938 C120.8378,19.0938 121.4316,19.2344 122.3691,19.6719 Z "/><text fill="#000000" font-family="sans-serif" font-size="12" lengthAdjust="spacingAndGlyphs" textLength="58" x="134.0253" y="28.1543">HashMap</text><line style="stroke: #A80036; stroke-width: 1.5;" x1="106.0253" x2="194.0253" y1="40" y2="40"/><line style="stroke: #A80036; stroke-width: 1.5;" x1="106.0253" x2="194.0253" y1="48" y2="48"/><!--link HashMap to AbstractMap--><path d="M198.994,58.32 C232.805,75.803 277.418,98.871 310.277,115.862 " fill="none" id="HashMap-AbstractMap" style="stroke: #A80036; stroke-width: 1.0;"/><polygon fill="#A80036" points="194.507,56,200.6644,63.6868,198.9484,58.2965,204.3387,56.5805,194.507,56" style="stroke: #A80036; stroke-width: 1.0;"/><!--link HashMap to Serializable--><path d="M132.799,60.254 C121.953,77.413 108.102,99.327 97.7663,115.678 " fill="none" id="HashMap-Serializable" style="stroke: #A80036; stroke-width: 1.0; stroke-dasharray: 7.0,7.0;"/><polygon fill="#A80036" points="135.487,56,127.2976,61.4711,132.8159,60.2267,134.0603,65.745,135.487,56" style="stroke: #A80036; stroke-width: 1.0;"/><!--link HashMap to Cloneable--><path d="M167.252,60.254 C178.097,77.413 191.949,99.327 202.284,115.678 " fill="none" id="HashMap-Cloneable" style="stroke: #A80036; stroke-width: 1.0; stroke-dasharray: 7.0,7.0;"/><polygon fill="#A80036" points="164.563,56,165.9897,65.745,167.2341,60.2267,172.7524,61.4711,164.563,56" style="stroke: #A80036; stroke-width: 1.0;"/><!--link AbstractMap to Map--><path d="M309.315,166.637 C273.83,186.5379 225.699,213.5322 195.249,230.61 " fill="none" id="AbstractMap-Map" style="stroke: #A80036; stroke-width: 1.0; stroke-dasharray: 7.0,7.0;"/><polygon fill="#A80036" points="314.015,164,304.2086,164.9131,309.6539,166.4455,308.1214,171.8909,314.015,164" style="stroke: #A80036; stroke-width: 1.0;"/><!--link HashMap to Map--><path d="M100.0265,49.199 C69.266,62.052 32.3369,83.372 14.0253,116 C3.5844,134.604 3.1396,145.653 14.0253,164 C40.5671,208.7343 100.6514,230.9118 136.822,240.5902 " fill="none" id="HashMap-Map" style="stroke: #A80036; stroke-width: 1.0; stroke-dasharray: 7.0,7.0;"/><polygon fill="#A80036" points="104.9066,47.208,95.0625,46.9032,100.2769,49.0963,98.0838,54.3107,104.9066,47.208" style="stroke: #A80036; stroke-width: 1.0;"/><!--
@startuml
interface Map
interface Serializable
interface Cloneable

class AbstractMap
class HashMap

HashMap<- - AbstractMap
HashMap<.. Serializable
HashMap<.. Cloneable
AbstractMap<.. Map
HashMap<.. Map
@enduml

PlantUML version 1.2019.01(Sat Feb 09 15:32:04 UTC 2019)
(GPL source distribution)
Java Runtime: Java(TM) SE Runtime Environment
JVM: Java HotSpot(TM) 64-Bit Server VM
Java Version: 1.7.0_25-b15
Operating System: Linux
Default Encoding: UTF-8
Language: en
Country: US
--></g></svg>